<svg xmlns="http://www.w3.org/2000/svg" width="960" height="540" viewBox="0 0 960 540" fill="none">
  <rect width="960" height="540" rx="28" fill="#F8FBFF"/>
  <rect x="40" y="36" width="880" height="468" rx="24" fill="white" stroke="#CFE1F2"/>
  <text x="78" y="94" fill="#2F6FB1" font-family="Aptos, Segoe UI, sans-serif" font-size="14" font-weight="800" letter-spacing="2">PYTHON GRAPHS</text>
  <text x="78" y="132" fill="#17314A" font-family="Aptos Display, Aptos, sans-serif" font-size="36" font-weight="800">Cycle Time Distribution</text>
  <text x="78" y="160" fill="#466786" font-family="Aptos, Segoe UI, sans-serif" font-size="16">Operational observations</text>
  <line x1="110" y1="410" x2="850" y2="410" stroke="#CFE1F2" stroke-width="2"/>
  <line x1="110" y1="180" x2="110" y2="410" stroke="#CFE1F2" stroke-width="2"/>
  <rect x="150" y="340" width="52" height="70" rx="8" fill="#D8ECFF" stroke="#204B73"/>
  <rect x="210" y="286" width="52" height="124" rx="8" fill="#B7D9F3" stroke="#204B73"/>
  <rect x="270" y="232" width="52" height="178" rx="8" fill="#93C5EB" stroke="#204B73"/>
  <rect x="330" y="196" width="52" height="214" rx="8" fill="#68A8DF" stroke="#204B73"/>
  <rect x="390" y="172" width="52" height="238" rx="8" fill="#2F6FB1" stroke="#204B73"/>
  <rect x="450" y="196" width="52" height="214" rx="8" fill="#68A8DF" stroke="#204B73"/>
  <rect x="510" y="236" width="52" height="174" rx="8" fill="#93C5EB" stroke="#204B73"/>
  <rect x="570" y="284" width="52" height="126" rx="8" fill="#B7D9F3" stroke="#204B73"/>
  <rect x="630" y="334" width="52" height="76" rx="8" fill="#D8ECFF" stroke="#204B73"/>
</svg>
